<mxfile host="app.diagrams.net" modified="2023-10-01T14:16:24.000Z" agent="Mozilla/5.0 (Windows NT 10.0; Win64; x64) AppleWebKit/537.36 (KHTML, like Gecko) Chrome/117.0.0.0 Safari/537.36 Edg/117.0.2045.47" version="21.8.2" etag="LyJIp_KVRKjwN6T2rUV7" type="github">
  <diagram name="Trang-1" id="inC3VuDNLSTtEtNJ6NXW">
    <mxGraphModel>
      <root>
        <mxCell id="0" />
        <mxCell id="1" parent="0" />
      </root>
    </mxGraphModel>
  </diagram>
</mxfile>
